<mxfile host="65bd71144e">
    <diagram id="q4iwkkKIO3PIiE4dWxfU" name="Page-1">
        <mxGraphModel dx="1014" dy="779" grid="0" gridSize="10" guides="1" tooltips="1" connect="1" arrows="1" fold="1" page="1" pageScale="1" pageWidth="850" pageHeight="1500" math="0" shadow="0">
            <root>
                <mxCell id="0"/>
                <mxCell id="1" parent="0"/>
                <UserObject label="📁 authorfinder-app/&#xa;├── 📁 backend/&#xa;│   ├── 📁 auth-service/&#xa;│   │   ├── 📁 src/&#xa;│   │   ├── 🧪 test/&#xa;│   │   ├── 📄 main.ts&#xa;│   │   ├── 📄 app.module.ts&#xa;│   │   ├── 📄 Dockerfile&#xa;│   │   ├── 📄 .env&#xa;│   │   ├── 📄 sonar-project.properties&#xa;│   │   ├── 📄 package.json&#xa;│   │   └── 📄 nest-cli.json&#xa;│   │&#xa;│   ├── 📁 user-service/&#xa;│   │   ├── 📁 src/&#xa;│   │   ├── 🧪 test/&#xa;│   │   ├── 📄 main.ts&#xa;│   │   ├── 📄 app.module.ts&#xa;│   │   ├── 📄 Dockerfile&#xa;│   │   ├── 📄 .env&#xa;│   │   ├── 📄 sonar-project.properties&#xa;│   │   ├── 📄 package.json&#xa;│   │   └── 📄 nest-cli.json&#xa;│   │&#xa;│   ├── 📁 author-service/&#xa;│   │   ├── 📁 src/&#xa;│   │   ├── 🧪 test/&#xa;│   │   ├── 📄 main.ts&#xa;│   │   ├── 📄 app.module.ts&#xa;│   │   ├── 📄 Dockerfile&#xa;│   │   ├── 📄 .env&#xa;│   │   ├── 📄 sonar-project.properties&#xa;│   │   ├── 📄 package.json&#xa;│   │   └── 📄 nest-cli.json&#xa;│   │&#xa;│   ├── 📁 favorites-service/&#xa;│      ├── 📁 src/&#xa;│      ├── 🧪 test/&#xa;│      ├── 📄 main.ts&#xa;│      ├── 📄 app.module.ts&#xa;│      ├── 📄 Dockerfile&#xa;│      ├── 📄 .env&#xa;│      ├── 📄 sonar-project.properties&#xa;│      ├── 📄 package.json&#xa;│      └── 📄 nest-cli.json&#xa;│   &#xa;├── 📁 frontend/&#xa;│   ├── 📁 public/&#xa;│   ├── 📁 src/&#xa;│   │   ├── 📄 App.tsx&#xa;│   │   ├── 📄 main.tsx&#xa;│   │   ├── 📁 components/&#xa;│   │   ├── 📁 hooks/&#xa;│   │   ├── 📁 pages/&#xa;│   │   ├── 📁 services/&#xa;│   ├── 🧪 test/&#xa;│   ├── 📄 Dockerfile&#xa;│   ├── 📄 .env&#xa;│   ├── 📄 sonar-project.properties&#xa;│   ├── 📄 package.json&#xa;│   └── 📄 tsconfig.json&#xa;│&#xa;├── 📄 docker-compose.yml – Orquestación&#xa;├── 📄 .gitignore – Ignora node_modules, etc.&#xa;├── 📄 README.md – Documentación del proyecto&#xa;└── 📄 package.json – (Opcional) scripts globales" link="📁 authorfinder-app/&#xa;│&#xa;├── 📁 backend/&#xa;│   │&#xa;│   ├── 📁 auth-service/ – Autenticación&#xa;│   │   ├── 📁 src/ – Punto de entrada&#xa;│   │   ├── 🧪 test/ – Pruebas Unitarias&#xa;│   │   ├── 📄 main.ts – Punto de entrada&#xa;│   │   ├── 📄 app.module.ts – Módulo principal&#xa;│   │   ├── 📁 common/ – Pipes, Guards...&#xa;│   │   ├── 📁 core/ – Dominio&#xa;│   │   ├── 📁 application/ – Casos de uso&#xa;│   │   ├── 📁 infrastructure/ – MongoDB&#xa;│   │   ├── 📁 interfaces/ – Adaptadores HTTP&#xa;│   │   ├── 📄 Dockerfile – Imagen Docker&#xa;│   │   ├── 📄 .env – Configuración&#xa;│   │   ├── 📄 sonar-project.properties – Análisis estático&#xa;│   │   ├── 📄 package.json – Dependencias&#xa;│   │   └── 📄 nest-cli.json – CLI NestJS&#xa;│   │&#xa;│   ├── 📁 user-service/ – Gestión de usuarios&#xa;│   │   ├── 📁 src/ – Lógica del usuario&#xa;│   │   ├── 🧪 test/ – Pruebas Unitarias&#xa;│   │   ├── 📄 Dockerfile – Imagen Docker&#xa;│   │   ├── 📄 .env – Configuración&#xa;│   │   └── 📄 package.json – Dependencias&#xa;│   │&#xa;│   ├── 📁 author-service/ – Búsqueda de autores&#xa;│   │   ├── 📁 src/ – Lógica del autor&#xa;│   │   ├── 🧪 test/ – Pruebas Unitarias&#xa;│   │   ├── 📄 Dockerfile – Imagen Docker&#xa;│   │   ├── 📄 .env – Configuración&#xa;│   │   └── 📄 package.json – Dependencias&#xa;│   │&#xa;│   ├── 📁 favorite-service/ – Gestión de favoritos&#xa;│   │   ├── 📁 src/ – Lógica de favoritos&#xa;│   │   ├── 🧪 test/ – Pruebas Unitarias&#xa;│   │   ├── 📄 Dockerfile – Imagen Docker&#xa;│   │   └── 📄 .env – Configuración&#xa;│   │&#xa;│   └── 📁 gateway/ – API Gateway&#xa;│       ├── 📁 src/&#xa;│       ├── 📄 Dockerfile&#xa;│       └── 📄 package.json&#xa;│&#xa;├── 📁 frontend/ – React + TypeScript&#xa;│   ├── 📁 public/ – Archivos estáticos&#xa;│   ├── 📁 src/ – Componentes y servicios&#xa;│   │   ├── 📄 App.tsx – Componente raíz&#xa;│   │   ├── 📄 main.tsx – Entrada de la app&#xa;│   │   ├── 📁 components/ – Componentes reutilizables&#xa;│   │   ├── 📁 hooks/ – Hooks personalizados&#xa;│   │   ├── 📁 pages/ – Páginas principales&#xa;│   │   ├── 📁 services/ – Servicios de API&#xa;│   │   ├── 📁 domain/ – Entidades compartidas&#xa;│   │   ├── 📁 application/ – Lógica de negocio&#xa;│   │   └── 📁 shared/ – Utils, constantes&#xa;│   ├── 🧪 test/ – Pruebas Unitarias&#xa;│   ├── 📄 Dockerfile – Imagen Docker&#xa;│   ├── 📄 .env – Variables de entorno&#xa;│   ├── 📄 sonar-project.properties – Análisis&#xa;│   ├── 📄 package.json – Scripts y dependencias&#xa;│   └── 📄 tsconfig.json – Config TS&#xa;│&#xa;├── 📄 docker-compose.yml – Orquestación&#xa;├── 📄 .gitignore – Ignora node_modules, etc.&#xa;├── 📄 README.md – Documentación del proyecto&#xa;└── 📄 package.json – (Opcional) scripts globales" id="31">
                    <mxCell style="text;whiteSpace=wrap;fontSize=13;" parent="1" vertex="1">
                        <mxGeometry x="252" y="43" width="428" height="1122" as="geometry"/>
                    </mxCell>
                </UserObject>
            </root>
        </mxGraphModel>
    </diagram>
</mxfile>